<svg width="60" height="60" viewBox="0 0 60 60" fill="none" xmlns="http://www.w3.org/2000/svg">
<g clip-path="url(#clip0_1236_326)">
<path d="M46.8374 56.2669H3.7124V9.39187H30.0562L33.8474 5.73937L33.7499 5.64187H3.7124C1.64053 5.64187 -0.0375977 7.32187 -0.0375977 9.39187V56.2669C-0.0375977 58.3388 1.64053 60.0169 3.7124 60.0169H46.8374C48.9093 60.0169 50.5874 58.3388 50.5874 56.2669V28.8056L46.8374 32.385V56.265V56.2669ZM57.0843 2.42812C55.393 0.806249 53.5255 -0.0168762 51.5324 -0.0168762C48.4143 -0.0168762 46.1399 1.99687 45.5212 2.61375C44.6437 3.48 19.7887 28.2994 19.7887 28.2994C19.5937 28.4981 19.4512 28.74 19.378 29.0119C18.7049 31.4981 15.3299 42.5456 15.298 42.6563C15.1237 43.2225 15.2793 43.8394 15.6974 44.2519C15.9955 44.5519 16.3968 44.7113 16.8055 44.7113C16.9668 44.7113 17.128 44.6887 17.2874 44.6381C17.4018 44.6006 28.8018 40.9144 30.6768 40.3537C30.9243 40.2806 31.1493 40.1475 31.3349 39.9656C32.518 38.7975 55.3649 16.3069 57.2137 14.3962C59.1262 12.4237 60.0749 10.3725 60.0393 8.29687C60.0037 6.24562 59.008 4.27125 57.0862 2.43L57.0843 2.42812ZM54.5174 11.7844C53.4749 12.8606 45.3037 20.9344 30.2324 35.7806L29.0793 36.9188C27.3524 37.4531 23.2143 38.7825 20.0868 39.7913C21.0937 36.4669 22.3012 32.4487 22.8412 30.5494C26.0605 27.3337 47.3568 6.07125 48.1649 5.27437C48.3224 5.11687 49.7605 3.735 51.5305 3.735C52.5355 3.735 53.5049 4.1925 54.4874 5.1375C55.663 6.26625 56.2687 7.34812 56.2855 8.3625C56.3043 9.405 55.708 10.5581 54.5174 11.7881V11.7844Z" fill="#1522F1"/>
</g>
<defs>
<clipPath id="clip0_1236_326">
<rect width="60" height="60" fill="white"/>
</clipPath>
</defs>
</svg>
