<svg width="60" height="60" viewBox="0 0 60 60" fill="none" xmlns="http://www.w3.org/2000/svg">
<g clip-path="url(#clip0_1236_304)">
<path d="M53.0078 9.60236L43.8897 0.484252C43.5826 0.177165 43.1574 0 42.7086 0H8.17317C7.25191 0 6.50781 0.744095 6.50781 1.66535V58.3346C6.50781 59.2559 7.25191 60 8.17317 60H51.8267C52.748 60 53.4921 59.2559 53.4921 58.3346V10.7835C53.4921 10.3346 53.3149 9.90945 53.0078 9.60236ZM44.374 5.69291L47.7992 9.11811H44.374V5.69291ZM9.83852 56.6693V3.33071H41.0432V10.7717C41.0432 11.6929 41.7873 12.437 42.7086 12.437H50.1495V56.6693H9.83852Z" fill="#1522F1"/>
<path d="M45.5316 16.311H27.7088C26.7876 16.311 26.0435 17.0551 26.0435 17.9764C26.0435 18.8976 26.7876 19.6417 27.7088 19.6417H45.5316C46.4529 19.6417 47.197 18.8976 47.197 17.9764C47.197 17.0551 46.4529 16.311 45.5316 16.311Z" fill="#1522F1"/>
<path d="M45.5316 32.0433H27.7088C26.7876 32.0433 26.0435 32.7874 26.0435 33.7087C26.0435 34.6299 26.7876 35.374 27.7088 35.374H45.5316C46.4529 35.374 47.197 34.6299 47.197 33.7087C47.197 32.7874 46.4529 32.0433 45.5316 32.0433Z" fill="#1522F1"/>
<path d="M45.5316 47.7874H27.7088C26.7876 47.7874 26.0435 48.5315 26.0435 49.4528C26.0435 50.374 26.7876 51.1181 27.7088 51.1181H45.5316C46.4529 51.1181 47.197 50.374 47.197 49.4528C47.197 48.5315 46.4529 47.7874 45.5316 47.7874Z" fill="#1522F1"/>
<path d="M22.3347 12.378H14.4686C13.5473 12.378 12.8032 13.122 12.8032 14.0433V21.9094C12.8032 22.8307 13.5473 23.5748 14.4686 23.5748H22.3347C23.256 23.5748 24.0001 22.8307 24.0001 21.9094V14.0433C24.0001 13.122 23.256 12.378 22.3347 12.378ZM20.6694 20.2441H16.1339V15.7087H20.6694V20.2441Z" fill="#1522F1"/>
<path d="M22.3347 28.122H14.4686C13.5473 28.122 12.8032 28.8661 12.8032 29.7874V37.6535C12.8032 38.5748 13.5473 39.3189 14.4686 39.3189H22.3347C23.256 39.3189 24.0001 38.5748 24.0001 37.6535V29.7874C24.0001 28.8661 23.256 28.122 22.3347 28.122ZM20.6694 35.9882H16.1339V31.4528H20.6694V35.9882Z" fill="#1522F1"/>
<path d="M25.1929 44.6102C24.5315 43.9606 23.4803 43.9606 22.8307 44.6102L17.7638 49.6772L15.6614 47.5748C15.0118 46.9252 13.9606 46.9252 13.2992 47.5748C12.6496 48.2244 12.6496 49.2756 13.2992 49.937L16.5827 53.2205C16.9134 53.5512 17.3386 53.7047 17.7638 53.7047C18.189 53.7047 18.6142 53.5394 18.9449 53.2205L25.1929 46.9724C25.8425 46.3228 25.8425 45.2717 25.1929 44.6102Z" fill="#1522F1"/>
</g>
<defs>
<clipPath id="clip0_1236_304">
<rect width="60" height="60" fill="white"/>
</clipPath>
</defs>
</svg>
