<svg width="60" height="60" viewBox="0 0 60 60" fill="none" xmlns="http://www.w3.org/2000/svg">
<g clip-path="url(#clip0_1236_201)">
<path d="M59.0008 46.5957H52.5678L54.8044 45.9962C55.0043 45.8963 55.304 45.7963 55.4039 45.4966C55.5038 45.1968 55.6038 44.9969 55.5038 44.6972L54.0203 39.1909C54.0284 39.0937 54.0239 38.9961 54.005 38.9021L53.0059 35.0053C52.9585 34.9105 52.8881 34.7934 52.8064 34.6855L47.8076 16.1323C47.8343 15.9958 47.837 15.855 47.8103 15.7213L46.8111 11.8246C46.7496 11.7014 46.6499 11.5405 46.5358 11.4116L45.1124 6.12942C45.0125 5.6298 44.413 5.33005 43.9134 5.43004L34.2215 8.02792C33.7219 8.12779 33.4222 8.72729 33.5222 9.22692L35.6771 17.2458C34.8756 16.8467 33.9744 16.6207 33.0225 16.6207H4.04665C3.64703 16.6207 3.34728 16.8205 3.1474 17.2202C2.94753 17.5199 2.94753 17.9196 3.1474 18.2193L4.3464 20.1177C5.24565 21.7163 5.24565 23.6148 4.3464 25.2134L3.46296 26.6123H1.04915C0.649527 26.6123 0.349777 26.8122 0.149904 27.2118C-0.0499681 27.5116 -0.0499681 27.9112 0.149904 28.2109L1.3489 30.1093C2.24815 31.7079 2.24815 33.6064 1.3489 35.2051L0.149904 37.1037C-0.0499681 37.4034 -0.0499681 37.803 0.149904 38.1028C0.349777 38.4025 0.649527 38.6024 1.04915 38.6024H3.39985L4.3464 40.1012C5.24565 41.6998 5.24565 43.5983 4.3464 45.1969L3.46296 46.5958H1.04915C0.449654 46.5958 0.0500266 46.9954 0.0500266 47.5949V53.5899C0.0500266 54.1894 0.449654 54.5891 1.04915 54.5891H59.0008C59.6003 54.5891 59.9999 54.1894 59.9999 53.5899V47.5949C60 46.9954 59.6003 46.5957 59.0008 46.5957ZM34.3428 36.7533C35.3794 35.6744 36.0199 34.2125 36.0199 32.6073C36.0199 31.0021 35.3794 29.5403 34.3428 28.4613C35.8631 28.116 37.1688 27.1898 38.0106 25.9294L41.4552 38.7475L42.3147 42.0994C42.3378 42.1457 42.3638 42.1905 42.3921 42.2337L43.5642 46.5957H37.4801C38.4344 45.533 39.0174 44.1309 39.0174 42.599C39.0175 39.7553 37.0101 37.3592 34.3428 36.7533ZM45.512 15.3218L37.8184 17.42L37.3188 15.5217L45.0124 13.4234L45.512 15.3218ZM46.0471 17.2135L50.6403 34.5919L42.9131 36.6631L38.9748 21.9144C38.9066 21.3367 38.7567 20.7832 38.5348 20.2667L38.2902 19.3506L46.0471 17.2135ZM43.5138 38.6024L51.1745 36.6126L51.6762 38.5109L44.0134 40.6008L43.5138 38.6024ZM45.512 46.3959L44.464 42.4711L52.1764 40.4038L53.2057 44.2977L45.512 46.3959ZM43.5138 7.62817L44.5092 11.3941L36.7229 13.4811L35.7203 9.72642L43.5138 7.62817ZM6.04503 19.0187L5.84515 18.619H33.0225C34.6696 18.619 36.0923 19.6289 36.7021 21.06L36.9873 22.1213C37.0076 22.2835 37.0192 22.4482 37.0192 22.6157C37.0192 24.8138 35.2207 26.6123 33.0225 26.6123H30.025H5.84515L6.04503 26.2127C7.3439 24.0145 7.3439 21.2169 6.04503 19.0187ZM3.04753 29.0104L2.84765 28.6108H4.04665H30.025C32.2232 28.6108 34.0217 30.4093 34.0217 32.6074C34.0217 34.8055 32.2232 36.604 30.025 36.604H4.04665H2.84765L3.04753 36.2044C4.3464 34.0062 4.3464 31.2085 3.04753 29.0104ZM6.04503 39.002L5.84515 38.6024H30.025H33.0225C35.2207 38.6024 37.0192 40.4009 37.0192 42.599C37.0192 44.7972 35.2207 46.5957 33.0225 46.5957H5.84515L6.04503 46.1961C7.3439 43.9979 7.3439 41.2002 6.04503 39.002ZM58.0017 52.5907H2.04828V48.5941H4.04665H33.0225H44.9127H45.1125H58.0018V52.5907H58.0017Z" fill="#1522F1"/>
<path d="M11.0406 43.5982H33.0223C33.6218 43.5982 34.0214 43.1985 34.0214 42.599C34.0214 41.9995 33.6218 41.5999 33.0223 41.5999H11.0406C10.4411 41.5999 10.0415 41.9995 10.0415 42.599C10.0415 43.1985 10.4411 43.5982 11.0406 43.5982Z" fill="#1522F1"/>
<path d="M8.04307 33.6065H30.0247C30.6242 33.6065 31.0238 33.2069 31.0238 32.6074C31.0238 32.0079 30.6242 31.6083 30.0247 31.6083H8.04307C7.44357 31.6083 7.04395 32.0079 7.04395 32.6074C7.04395 33.2069 7.44357 33.6065 8.04307 33.6065Z" fill="#1522F1"/>
<path d="M11.0406 23.6149H33.0223C33.6218 23.6149 34.0214 23.2153 34.0214 22.6158C34.0214 22.0163 33.6218 21.6167 33.0223 21.6167H11.0406C10.4411 21.6167 10.0415 22.0163 10.0415 22.6158C10.0415 23.2153 10.4411 23.6149 11.0406 23.6149Z" fill="#1522F1"/>
<path d="M42.0153 21.5167L45.1126 33.107C45.3125 33.5067 45.7121 33.8064 46.1118 33.8064C46.1118 33.8064 46.2116 33.8064 46.3116 33.7065C46.8113 33.6067 47.111 33.0072 47.011 32.5075L43.9136 21.0172C43.8138 20.5175 43.2143 20.2178 42.7146 20.3178C42.215 20.4178 41.9153 21.017 42.0153 21.5167Z" fill="#1522F1"/>
</g>
<defs>
<clipPath id="clip0_1236_201">
<rect width="60" height="60" fill="white"/>
</clipPath>
</defs>
</svg>
