<svg width="60" height="60" viewBox="0 0 60 60" fill="none" xmlns="http://www.w3.org/2000/svg">
<path d="M22.5 25C28.0228 25 32.5 20.5228 32.5 15C32.5 9.47715 28.0228 5 22.5 5C16.9772 5 12.5 9.47715 12.5 15C12.5 20.5228 16.9772 25 22.5 25Z" stroke="#1522F1" stroke-width="5"/>
<path d="M37.5 22.5C41.6423 22.5 45 19.1421 45 15C45 10.8579 41.6423 7.5 37.5 7.5" stroke="#1522F1" stroke-width="5" stroke-linecap="round"/>
<path d="M22.5 52.5C32.165 52.5 40 48.0228 40 42.5C40 36.9772 32.165 32.5 22.5 32.5C12.835 32.5 5 36.9772 5 42.5C5 48.0228 12.835 52.5 22.5 52.5Z" stroke="#1522F1" stroke-width="5"/>
<path d="M45 35C49.3855 35.9618 52.5 38.3972 52.5 41.25C52.5 43.8232 49.9657 46.0572 46.25 47.176" stroke="#1522F1" stroke-width="5" stroke-linecap="round"/>
</svg>
