<svg width="130" height="93" viewBox="0 0 130 93" fill="none" xmlns="http://www.w3.org/2000/svg">
<path opacity="0.3" d="M103.542 20.1495C116.639 24.3831 126.795 36.2902 129.437 51.1759C131.658 63.7204 127.969 79.1474 106.448 86.3076C84.4825 93.6202 23.0592 97.1322 11.6372 76.8021C0.21532 56.4719 2.62078 30.3527 26.0419 21.0877C42.4592 14.613 77.9597 11.8667 103.542 20.1495Z" fill="#E6E6E6"/>
<path d="M65.9282 3.99609H30.0717V52.0041H65.9282V3.99609Z" fill="white"/>
<path d="M44.2151 9.77295H35.5498V18.4383H44.2151V9.77295Z" fill="#FECF63"/>
<path d="M44.2151 37.7607H35.5498V46.4261H44.2151V37.7607Z" fill="#FECF63"/>
<path d="M65.9283 3H30.0717C29.5217 3 29.0757 3.44592 29.0757 3.99602V52.004C29.0757 52.5541 29.5217 53 30.0717 53H65.9283C66.4783 53 66.9243 52.5541 66.9243 52.004V3.99602C66.9243 3.44592 66.4783 3 65.9283 3ZM64.9323 51.008H31.0677V4.99203H64.9323V51.008Z" fill="#194F82"/>
<path d="M35.5497 19.4342H44.2151C44.7651 19.4342 45.2111 18.9883 45.2111 18.4382V9.77287C45.2111 9.22277 44.7651 8.77686 44.2151 8.77686H35.5497C34.9997 8.77686 34.5537 9.22277 34.5537 9.77287V18.4382C34.5537 18.9883 34.9997 19.4342 35.5497 19.4342ZM36.5457 10.7689H43.219V17.4422H36.5457V10.7689Z" fill="#194F82"/>
<path d="M35.5497 33.4782H44.2151C44.7651 33.4782 45.2111 33.0323 45.2111 32.4822V30.5897C45.2111 30.0396 44.7651 29.5937 44.2151 29.5937C43.6651 29.5937 43.219 30.0396 43.219 30.5897V31.4861H36.5457V24.8128H42.721C43.271 24.8128 43.7171 24.3669 43.7171 23.8168C43.7171 23.2667 43.271 22.8208 42.721 22.8208H35.5497C34.9997 22.8208 34.5537 23.2667 34.5537 23.8168V32.4822C34.5537 33.0323 34.9997 33.4782 35.5497 33.4782Z" fill="#194F82"/>
<path d="M35.5497 47.4225H44.2151C44.7651 47.4225 45.2111 46.9766 45.2111 46.4265V37.7612C45.2111 37.2111 44.7651 36.7651 44.2151 36.7651H35.5497C34.9997 36.7651 34.5537 37.2111 34.5537 37.7612V46.4265C34.5537 46.9766 34.9997 47.4225 35.5497 47.4225ZM36.5457 38.7572H43.219V45.4305H36.5457V38.7572Z" fill="#194F82"/>
<path d="M55.5697 12.8607H60.5498C61.0998 12.8607 61.5458 12.4148 61.5458 11.8647C61.5458 11.3146 61.0998 10.8687 60.5498 10.8687H55.5697C55.0197 10.8687 54.5737 11.3146 54.5737 11.8647C54.5737 12.4148 55.0197 12.8607 55.5697 12.8607Z" fill="#194F82"/>
<path d="M49.6932 12.8607H51.3864C51.9364 12.8607 52.3824 12.4148 52.3824 11.8647C52.3824 11.3146 51.9364 10.8687 51.3864 10.8687H49.6932C49.1432 10.8687 48.6971 11.3146 48.6971 11.8647C48.6971 12.4148 49.1432 12.8607 49.6932 12.8607Z" fill="#194F82"/>
<path d="M49.6932 16.9442H60.5497C61.0997 16.9442 61.5457 16.4983 61.5457 15.9482C61.5457 15.3981 61.0997 14.9521 60.5497 14.9521H49.6932C49.1432 14.9521 48.6971 15.3981 48.6971 15.9482C48.6971 16.4983 49.1432 16.9442 49.6932 16.9442Z" fill="#194F82"/>
<path d="M60.5498 25.0117H55.5697C55.0197 25.0117 54.5737 25.4576 54.5737 26.0077C54.5737 26.5578 55.0197 27.0038 55.5697 27.0038H60.5498C61.0998 27.0038 61.5458 26.5578 61.5458 26.0077C61.5458 25.4576 61.0998 25.0117 60.5498 25.0117Z" fill="#194F82"/>
<path d="M49.6932 27.0038H51.3864C51.9364 27.0038 52.3824 26.5578 52.3824 26.0077C52.3824 25.4576 51.9364 25.0117 51.3864 25.0117H49.6932C49.1432 25.0117 48.6971 25.4576 48.6971 26.0077C48.6971 26.5578 49.1432 27.0038 49.6932 27.0038Z" fill="#194F82"/>
<path d="M49.6932 31.0877H60.5497C61.0997 31.0877 61.5457 30.6418 61.5457 30.0917C61.5457 29.5416 61.0997 29.0957 60.5497 29.0957H49.6932C49.1432 29.0957 48.6971 29.5416 48.6971 30.0917C48.6971 30.6418 49.1432 31.0877 49.6932 31.0877Z" fill="#194F82"/>
<path d="M60.5498 38.8564H55.5697C55.0197 38.8564 54.5737 39.3024 54.5737 39.8525C54.5737 40.4026 55.0197 40.8485 55.5697 40.8485H60.5498C61.0998 40.8485 61.5458 40.4026 61.5458 39.8525C61.5458 39.3024 61.0998 38.8564 60.5498 38.8564Z" fill="#194F82"/>
<path d="M49.6932 40.8485H51.3864C51.9364 40.8485 52.3824 40.4026 52.3824 39.8525C52.3824 39.3024 51.9364 38.8564 51.3864 38.8564H49.6932C49.1432 38.8564 48.6971 39.3024 48.6971 39.8525C48.6971 40.4026 49.1432 40.8485 49.6932 40.8485Z" fill="#194F82"/>
<path d="M49.6932 44.9325H60.5497C61.0997 44.9325 61.5457 44.4865 61.5457 43.9364C61.5457 43.3863 61.0997 42.9404 60.5497 42.9404H49.6932C49.1432 42.9404 48.6971 43.3863 48.6971 43.9364C48.6971 44.4865 49.1432 44.9325 49.6932 44.9325Z" fill="#194F82"/>
<path d="M40.2737 30.3977C40.4683 30.5922 40.7231 30.6894 40.978 30.6894C41.2329 30.6894 41.4878 30.5922 41.6823 30.3977L47.6086 24.4714C47.9975 24.0824 47.9975 23.4517 47.6086 23.0627C47.2196 22.6738 46.5891 22.6738 46.1999 23.0627L40.9689 28.2938L39.1261 26.533C38.7286 26.153 38.0979 26.1673 37.718 26.565C37.3379 26.9627 37.3522 27.5932 37.7499 27.9733L40.2737 30.3977Z" fill="#194F82"/>
<g clip-path="url(#clip0_778_347)">
<path d="M78.207 75.6976H74.2812C73.6686 75.6976 73.168 75.2036 73.168 74.5845V70.6652C73.168 70.3754 73.2866 70.0922 73.4908 69.8747L81.1975 62.1681V45.3451C81.1975 44.7325 80.7035 44.2319 80.0843 44.2319H62.6157V49.5081C62.6157 50.1206 62.1218 50.6212 61.5026 50.6212H56.2264V78.6684C56.2264 79.2809 56.7204 79.7815 57.3396 79.7815H80.104C80.7165 79.7815 81.2171 79.2876 81.2171 78.6684V73.1748L79.0039 75.3748C78.7931 75.579 78.5099 75.6976 78.207 75.6976Z" fill="white"/>
<path d="M61.496 50.6209H58.5516L58.275 76.3296C58.2683 76.9422 58.7624 77.4494 59.3684 77.4561L77.6866 77.6602C78.2992 77.6669 78.8064 77.1728 78.813 76.5668L78.8196 75.5195C78.6418 75.6446 78.4179 75.7106 78.2004 75.7106H74.2747C73.6621 75.7106 73.1615 75.2166 73.1615 74.5974V70.6716C73.1615 70.3818 73.2801 70.0986 73.4843 69.8811L78.9382 64.4272L79.1293 47.6898C79.1359 47.0772 78.6418 46.57 78.0359 46.5634L62.596 46.4053V49.5143C62.6157 50.1203 62.1085 50.6209 61.496 50.6209Z" fill="#56ACE0"/>
<path d="M75.5853 50.5227H66.3505C65.7379 50.5227 65.2373 50.0287 65.2373 49.4096C65.2373 48.797 65.7313 48.2964 66.3505 48.2964H75.5853C76.1979 48.2964 76.6985 48.7904 76.6985 49.4096C76.6986 50.0287 76.2045 50.5227 75.5853 50.5227Z" fill="#194F82"/>
<path d="M75.5853 56.8132H61.8384C61.2258 56.8132 60.7252 56.3193 60.7252 55.7001C60.7252 55.0809 61.2192 54.5869 61.8384 54.5869H75.5919C76.2045 54.5869 76.705 55.0809 76.705 55.7001C76.6985 56.3192 76.2045 56.8132 75.5853 56.8132Z" fill="#194F82"/>
<path d="M75.5853 63.1033H61.8384C61.2258 63.1033 60.7252 62.6093 60.7252 61.9901C60.7252 61.3709 61.2192 60.877 61.8384 60.877H75.5919C76.2045 60.877 76.705 61.3709 76.705 61.9901C76.705 62.6092 76.2045 63.1033 75.5853 63.1033Z" fill="#194F82"/>
<path d="M69.5649 69.407H61.8385C61.2259 69.407 60.7253 68.913 60.7253 68.2938C60.7253 67.6813 61.2193 67.1807 61.8385 67.1807H69.5649C70.1775 67.1807 70.6781 67.6746 70.6781 68.2938C70.6781 68.9129 70.1775 69.407 69.5649 69.407Z" fill="#194F82"/>
<path d="M69.5649 75.6975H61.8385C61.2259 75.6975 60.7253 75.2036 60.7253 74.5844C60.7253 73.9652 61.2193 73.4712 61.8385 73.4712H69.5649C70.1775 73.4712 70.6781 73.9652 70.6781 74.5844C70.6781 75.2036 70.1775 75.6975 69.5649 75.6975Z" fill="#194F82"/>
<path d="M93.1724 57.2806L91.5981 55.7063C90.3861 54.6129 88.8513 54.6194 87.6723 55.7063L83.4303 59.9483V45.3452C83.4303 43.5075 81.935 42.0122 80.0973 42.0122H62.4247C61.5355 42.0122 60.6923 42.3613 60.06 42.9871L54.9749 48.0722C54.3426 48.7045 54 49.5344 54 50.4236V78.6552C54 80.4929 55.4953 81.9882 57.333 81.9882H80.0973C81.935 81.9882 83.4303 80.4929 83.4303 78.6552V70.9485L93.1723 61.2065C94.3054 60.034 94.2461 58.3214 93.1724 57.2806ZM60.3827 45.8062V48.3949H57.794L60.3827 45.8062ZM81.2106 78.6618C81.2106 79.2744 80.7166 79.775 80.0974 79.775H57.333C56.7204 79.775 56.2198 79.281 56.2198 78.6618V50.6213H61.4959C62.1085 50.6213 62.6091 50.1273 62.6091 49.5082V44.232H80.0973C80.7099 44.232 81.2105 44.726 81.2105 45.3452V62.1682L73.5104 69.8748C73.3062 70.079 73.1876 70.3623 73.1876 70.6653V74.5911C73.1876 75.2036 73.6815 75.7042 74.3007 75.7042H78.2265C78.5163 75.7042 78.7995 75.5856 79.017 75.3814L81.2236 73.1748L81.2106 78.6618ZM77.7524 73.4779H75.4009V71.1263L86.2429 60.2777L88.5945 62.6292L77.7524 73.4779ZM91.5981 59.6322L90.1753 61.055L87.8238 58.7034L89.2466 57.2806C89.5298 57.05 89.7867 57.0764 90.037 57.2806L91.6047 58.8483C91.8023 58.9932 91.8418 59.4346 91.5981 59.6322Z" fill="#194F82"/>
<path d="M60.3827 45.8062L57.7941 48.3948H60.3827V45.8062Z" fill="#FFC10D"/>
<path d="M75.4009 71.1199V73.478H77.7524L88.6011 62.6359L86.2429 60.2778L75.4009 71.1199Z" fill="#FFC10D"/>
<path d="M90.0304 57.2804C89.7867 57.0762 89.5232 57.0498 89.2399 57.2804L87.8171 58.7032L90.1687 61.0547L91.5915 59.6319C91.8352 59.4344 91.7957 58.993 91.5915 58.8415L90.0304 57.2804Z" fill="white"/>
</g>
<path d="M88.5 22.5H86V25H88.5V22.5Z" fill="white"/>
<path d="M88.5 29.5H86V32H88.5V29.5Z" fill="white"/>
<path d="M88.5 36.5H86V39H88.5V36.5Z" fill="white"/>
<path d="M88.5 43.5H86V46H88.5V43.5Z" fill="white"/>
<path d="M103.5 44.75C103.5 44.3357 103.836 44 104.25 44H113V9.5H80V53.5H103.5V44.75ZM107.75 38.5H92.25C91.8358 38.5 91.5 38.1643 91.5 37.75C91.5 37.3357 91.8358 37 92.25 37H107.75C108.164 37 108.5 37.3357 108.5 37.75C108.5 38.1643 108.164 38.5 107.75 38.5ZM107.75 31.5H92.25C91.8358 31.5 91.5 31.1643 91.5 30.75C91.5 30.3357 91.8358 30 92.25 30H107.75C108.164 30 108.5 30.3357 108.5 30.75C108.5 31.1643 108.164 31.5 107.75 31.5ZM93.3713 16H107.75C108.164 16 108.5 16.3357 108.5 16.75C108.5 17.1643 108.164 17.5 107.75 17.5H93.3713C92.9571 17.5 92.6213 17.1643 92.6213 16.75C92.6213 16.3357 92.9571 16 93.3713 16ZM107.75 23C108.164 23 108.5 23.3357 108.5 23.75C108.5 24.1643 108.164 24.5 107.75 24.5H92.25C91.8358 24.5 91.5 24.1643 91.5 23.75C91.5 23.3357 91.8358 23 92.25 23H107.75ZM85.2197 16.7196C85.5126 16.4268 85.9875 16.4268 86.2803 16.7196L87.25 17.6893L90.7197 14.2196C91.0126 13.9268 91.4875 13.9268 91.7803 14.2196C92.0732 14.5126 92.0732 14.9874 91.7803 15.2803L87.7803 19.2803C87.6339 19.4267 87.4419 19.4999 87.25 19.4999C87.0581 19.4999 86.8661 19.4267 86.7197 19.2803L85.2197 17.7803C84.9268 17.4874 84.9268 17.0126 85.2197 16.7196ZM90 46.75C90 47.1643 89.6642 47.5 89.25 47.5H85.25C84.8358 47.5 84.5 47.1643 84.5 46.75V42.75C84.5 42.3357 84.8358 42 85.25 42H89.25C89.6642 42 90 42.3357 90 42.75V46.75ZM90 39.75C90 40.1643 89.6642 40.5 89.25 40.5H85.25C84.8358 40.5 84.5 40.1643 84.5 39.75V35.75C84.5 35.3357 84.8358 35 85.25 35H89.25C89.6642 35 90 35.3357 90 35.75V39.75ZM90 32.75C90 33.1643 89.6642 33.5 89.25 33.5H85.25C84.8358 33.5 84.5 33.1643 84.5 32.75V28.75C84.5 28.3357 84.8358 28 85.25 28H89.25C89.6642 28 90 28.3357 90 28.75V32.75ZM90 25.75C90 26.1643 89.6642 26.5 89.25 26.5H85.25C84.8358 26.5 84.5 26.1643 84.5 25.75V21.75C84.5 21.3357 84.8358 21 85.25 21H89.25C89.6642 21 90 21.3357 90 21.75V25.75ZM101.25 45.5H92.25C91.8358 45.5 91.5 45.1643 91.5 44.75C91.5 44.3357 91.8358 44 92.25 44H101.25C101.664 44 102 44.3357 102 44.75C102 45.1643 101.664 45.5 101.25 45.5Z" fill="white"/>
<path d="M105 45.5V52.4394L111.939 45.5H105Z" fill="#FFCC75"/>
<path d="M114.34 45.2115C114.352 45.1969 114.363 45.1823 114.373 45.1669C114.376 45.1628 114.378 45.1584 114.381 45.1542C114.392 45.1378 114.402 45.1211 114.411 45.1038C114.413 45.1008 114.414 45.0975 114.416 45.0944C114.425 45.0757 114.435 45.0569 114.443 45.0375C114.444 45.0353 114.444 45.033 114.445 45.0309C114.453 45.0105 114.461 44.9898 114.467 44.9686C114.468 44.9661 114.468 44.9634 114.469 44.9609C114.475 44.9401 114.481 44.9191 114.485 44.8977C114.486 44.8916 114.487 44.8855 114.488 44.8794C114.491 44.8613 114.494 44.8434 114.496 44.8249C114.499 44.8001 114.5 44.7751 114.5 44.75V8.75C114.5 8.3357 114.164 8 113.75 8H79.2499C78.8358 8 78.5 8.3357 78.5 8.75V54.25C78.5 54.6643 78.8358 55 79.25 55H104.25C104.275 55 104.3 54.9987 104.325 54.9962C104.344 54.9943 104.362 54.9912 104.38 54.988C104.386 54.987 104.392 54.9865 104.398 54.9854C104.419 54.9811 104.44 54.9755 104.461 54.9696C104.463 54.9688 104.466 54.9683 104.469 54.9675C104.489 54.9612 104.51 54.9537 104.53 54.9457C104.532 54.9446 104.535 54.9438 104.538 54.9428C104.557 54.9349 104.575 54.926 104.593 54.9167C104.597 54.9147 104.6 54.9132 104.604 54.9112C104.621 54.9024 104.636 54.8925 104.652 54.8825C104.657 54.8794 104.662 54.8766 104.667 54.8733C104.682 54.8635 104.696 54.8528 104.709 54.842C104.715 54.8377 104.721 54.8339 104.726 54.8295C104.743 54.8156 104.759 54.8008 104.775 54.7856C104.777 54.7837 104.779 54.7823 104.78 54.7804L114.28 45.2804C114.282 45.2789 114.283 45.2773 114.285 45.2758C114.3 45.2598 114.315 45.2434 114.33 45.226C114.333 45.2213 114.337 45.2162 114.34 45.2115ZM80 9.5H113V44H104.25C103.836 44 103.5 44.3357 103.5 44.75V53.5H80V9.5ZM105 45.5H111.939L105 52.4394V45.5Z" fill="#082947"/>
<path d="M93.3713 17.5H107.75C108.164 17.5 108.5 17.1643 108.5 16.75C108.5 16.3357 108.164 16 107.75 16H93.3713C92.9571 16 92.6213 16.3357 92.6213 16.75C92.6213 17.1643 92.9571 17.5 93.3713 17.5Z" fill="#082947"/>
<path d="M86.7197 19.2803C86.8661 19.4267 87.0581 19.4999 87.25 19.4999C87.4419 19.4999 87.6339 19.4267 87.7803 19.2803L91.7803 15.2803C92.0732 14.9873 92.0732 14.5125 91.7803 14.2196C91.4874 13.9268 91.0125 13.9268 90.7197 14.2196L87.25 17.6893L86.2803 16.7196C85.9874 16.4268 85.5125 16.4268 85.2197 16.7196C84.9268 17.0126 84.9268 17.4874 85.2197 17.7803L86.7197 19.2803Z" fill="#082947"/>
<path d="M91.5 23.75C91.5 24.1643 91.8358 24.5 92.25 24.5H107.75C108.164 24.5 108.5 24.1643 108.5 23.75C108.5 23.3357 108.164 23 107.75 23H92.25C91.8358 23 91.5 23.3357 91.5 23.75Z" fill="#082947"/>
<path d="M89.25 21H85.25C84.8358 21 84.5 21.3357 84.5 21.75V25.75C84.5 26.1643 84.8358 26.5 85.25 26.5H89.25C89.6642 26.5 90 26.1643 90 25.75V21.75C90 21.3357 89.6642 21 89.25 21ZM88.5 25H86V22.5H88.5V25Z" fill="#082947"/>
<path d="M107.75 30H92.25C91.8358 30 91.5 30.3357 91.5 30.75C91.5 31.1643 91.8358 31.5 92.25 31.5H107.75C108.164 31.5 108.5 31.1643 108.5 30.75C108.5 30.3357 108.164 30 107.75 30Z" fill="#082947"/>
<path d="M89.25 28H85.25C84.8358 28 84.5 28.3357 84.5 28.75V32.75C84.5 33.1643 84.8358 33.5 85.25 33.5H89.25C89.6642 33.5 90 33.1643 90 32.75V28.75C90 28.3357 89.6642 28 89.25 28ZM88.5 32H86V29.5H88.5V32Z" fill="#082947"/>
<path d="M107.75 37H92.25C91.8358 37 91.5 37.3357 91.5 37.75C91.5 38.1643 91.8358 38.5 92.25 38.5H107.75C108.164 38.5 108.5 38.1643 108.5 37.75C108.5 37.3357 108.164 37 107.75 37Z" fill="#082947"/>
<path d="M89.25 35H85.25C84.8358 35 84.5 35.3357 84.5 35.75V39.75C84.5 40.1643 84.8358 40.5 85.25 40.5H89.25C89.6642 40.5 90 40.1643 90 39.75V35.75C90 35.3357 89.6642 35 89.25 35ZM88.5 39H86V36.5H88.5V39Z" fill="#082947"/>
<path d="M101.25 44H92.25C91.8358 44 91.5 44.3357 91.5 44.75C91.5 45.1643 91.8358 45.5 92.25 45.5H101.25C101.664 45.5 102 45.1643 102 44.75C102 44.3357 101.664 44 101.25 44Z" fill="#082947"/>
<path d="M89.25 42H85.25C84.8358 42 84.5 42.3357 84.5 42.75V46.75C84.5 47.1643 84.8358 47.5 85.25 47.5H89.25C89.6642 47.5 90 47.1643 90 46.75V42.75C90 42.3357 89.6642 42 89.25 42ZM88.5 46H86V43.5H88.5V46Z" fill="#082947"/>
<circle cx="118.5" cy="29.5" r="1.5" fill="white"/>
<circle cx="110" cy="1" r="1" fill="#FECF63"/>
<circle cx="116" cy="91" r="1" fill="#FECF63"/>
<circle cx="117.5" cy="4.5" r="4.5" fill="#FECF63"/>
<circle cx="3.5" cy="76.5" r="3.5" fill="#FECF63"/>
<circle cx="15.5" cy="86.5" r="1.5" fill="#194F82"/>
<circle cx="5.5" cy="68.5" r="1.5" fill="white"/>
<circle cx="122.5" cy="16.5" r="1.5" fill="#146BFB"/>
<defs>
<clipPath id="clip0_778_347">
<rect width="40" height="40" fill="white" transform="translate(54 42)"/>
</clipPath>
</defs>
</svg>
